<svg width="23" height="24" viewBox="0 0 23 24" fill="none" xmlns="http://www.w3.org/2000/svg">
<path d="M4.38843 0.5C3.98778 0.5 3.60352 0.659164 3.32022 0.942467C3.03692 1.22577 2.87775 1.61002 2.87775 2.01068C2.87775 2.41133 3.03692 2.79558 3.32022 3.07888C3.60352 3.36219 3.98778 3.52135 4.38843 3.52135H17.8436L0.480812 20.8841C0.332383 21.0223 0.213342 21.1892 0.130778 21.3743C0.0482146 21.5597 0.00380106 21.7599 0.000235864 21.9627C-0.00334948 22.1655 0.0339735 22.367 0.10995 22.5551C0.185928 22.7432 0.299007 22.914 0.442461 23.0574C0.585915 23.2009 0.756783 23.3141 0.944892 23.39C1.133 23.4659 1.33449 23.5034 1.53732 23.4998C1.74015 23.4961 1.94021 23.4518 2.12552 23.3692C2.31083 23.2867 2.47761 23.1676 2.6159 23.0192L19.9786 5.65644V19.1115C19.9786 19.5122 20.1378 19.8965 20.4212 20.1797C20.7044 20.4631 21.0887 20.6222 21.4893 20.6222C21.89 20.6222 22.2743 20.4631 22.5575 20.1797C22.8409 19.8965 23 19.5122 23 19.1115V2.01068C22.999 1.80986 22.9579 1.61129 22.8791 1.42655C22.7696 1.16901 22.5913 0.946454 22.3641 0.7831C22.1367 0.619746 21.869 0.521834 21.59 0.5H4.38843Z" fill="#4CD7AB"/>
</svg>
