<svg width="19" height="30" viewBox="0 0 19 30" fill="none" xmlns="http://www.w3.org/2000/svg">
<path d="M18.2677 22.4991C17.7779 23.421 17.1047 24.19 16.2528 24.8199C15.3973 25.448 14.3738 25.9158 13.1845 26.2243C12.6646 26.3562 12.12 26.4478 11.5673 26.5228V30H7.43271V26.5924C6.25517 26.4926 5.12964 26.3086 4.06978 26.0156C2.45169 25.5707 0.33285 23.7744 0.33285 23.7744C0.151362 23.6682 0.0309342 23.4814 0.00542437 23.2746C-0.0210195 23.0658 0.0501398 22.8553 0.198821 22.7069L2.2702 20.6268C2.49366 20.4053 2.84029 20.3631 3.10841 20.5279C3.10841 20.5279 4.65902 21.8793 5.83382 22.2015C7.00861 22.522 8.1743 22.6831 9.33725 22.6831C10.8039 22.6831 12.0161 22.4231 12.9775 21.903C13.9406 21.3793 14.4204 20.57 14.4204 19.4641C14.4204 18.6676 14.1851 18.0395 13.7099 17.5781C13.2365 17.1203 12.4357 16.8319 11.3055 16.7055L7.59505 16.3851C5.39776 16.1699 3.70307 15.5547 2.51275 14.5467C1.3188 13.535 0.725947 12.0006 0.725947 9.94986C0.725947 8.81461 0.953959 7.80387 1.41279 6.91488C1.87249 6.0259 2.4964 5.2752 3.29083 4.66359C4.08438 4.05018 5.00927 3.59057 6.06183 3.28482C6.50239 3.15662 6.9639 3.07242 7.43271 2.99549V0H11.5673V2.9352C12.5323 3.03041 13.4508 3.18604 14.3054 3.42229C15.7557 3.81961 17.2789 5.01533 17.2789 5.01533C17.4696 5.11424 17.5991 5.30098 17.6319 5.51338C17.6648 5.72947 17.5945 5.94187 17.444 6.0975L15.5012 8.07686C15.2942 8.28744 14.9741 8.34234 14.7095 8.20506C14.7095 8.20506 13.5593 7.38293 12.5652 7.12289C11.5718 6.86285 10.5284 6.73102 9.42931 6.73102C7.99276 6.73102 6.93103 7.00752 6.24606 7.55771C5.55835 8.1116 5.2172 8.83119 5.2172 9.71836C5.2172 10.5176 5.45706 11.1292 5.9487 11.5558C6.43665 11.9861 7.26033 12.2653 8.4214 12.3834L11.6731 12.6618C14.0838 12.876 15.9089 13.5187 17.1448 14.5908C18.3825 15.6647 19 17.2284 19 19.2792C19.0001 20.5088 18.7556 21.579 18.2677 22.4991Z" fill="#4CD7AB"/>
</svg>
