<svg width="20" height="16" viewBox="0 0 20 16" fill="none" xmlns="http://www.w3.org/2000/svg">
<path d="M19.6211 5.94458C19.7734 5.82349 20 5.93677 20 6.12817V14.1165C20 15.1516 19.1602 15.9915 18.125 15.9915H1.875C0.839844 15.9915 0 15.1516 0 14.1165V6.13208C0 5.93677 0.222656 5.82739 0.378906 5.94849C1.25391 6.62817 2.41406 7.49146 6.39844 10.386C7.22266 10.9875 8.61328 12.2532 10 12.2454C11.3945 12.2571 12.8125 10.9641 13.6055 10.386C17.5898 7.49146 18.7461 6.62427 19.6211 5.94458ZM10 10.9915C10.9062 11.0071 12.2109 9.85083 12.8672 9.37427C18.0508 5.61255 18.4453 5.28442 19.6406 4.34692C19.8672 4.17114 20 3.89771 20 3.60864V2.86646C20 1.8313 19.1602 0.991455 18.125 0.991455H1.875C0.839844 0.991455 0 1.8313 0 2.86646V3.60864C0 3.89771 0.132812 4.16724 0.359375 4.34692C1.55469 5.28052 1.94922 5.61255 7.13281 9.37427C7.78906 9.85083 9.09375 11.0071 10 10.9915Z" fill="white"/>
</svg>
