<svg width="31" height="31" viewBox="0 0 31 31" fill="none" xmlns="http://www.w3.org/2000/svg">
<path d="M22.0055 0H9.00999C3.36518 0 0 3.3635 0 9.0055V21.979C0 27.6365 3.36518 31 9.00999 31H21.99C27.6348 31 30.9999 27.6365 30.9999 21.9945V9.0055C31.0155 3.3635 27.6503 0 22.0055 0ZM15.5077 21.514C12.1891 21.514 9.49073 18.817 9.49073 15.5C9.49073 12.183 12.1891 9.486 15.5077 9.486C18.8264 9.486 21.5247 12.183 21.5247 15.5C21.5247 18.817 18.8264 21.514 15.5077 21.514ZM24.6883 7.564C24.6108 7.75 24.5022 7.9205 24.3626 8.0755C24.2076 8.215 24.037 8.3235 23.8509 8.401C23.6648 8.4785 23.4632 8.525 23.2616 8.525C22.8429 8.525 22.4552 8.37 22.1605 8.0755C22.021 7.9205 21.9124 7.75 21.8349 7.564C21.7573 7.378 21.7108 7.1765 21.7108 6.975C21.7108 6.7735 21.7573 6.572 21.8349 6.386C21.9124 6.1845 22.021 6.0295 22.1605 5.8745C22.5172 5.518 23.06 5.3475 23.5562 5.456C23.6648 5.4715 23.7578 5.5025 23.8509 5.549C23.9439 5.58 24.037 5.6265 24.13 5.6885C24.2076 5.735 24.2851 5.8125 24.3626 5.8745C24.5022 6.0295 24.6108 6.1845 24.6883 6.386C24.7658 6.572 24.8124 6.7735 24.8124 6.975C24.8124 7.1765 24.7658 7.378 24.6883 7.564Z" fill="#939393"/>
</svg>
