<svg width="9" height="12" viewBox="0 0 9 12" fill="none" xmlns="http://www.w3.org/2000/svg">
<path d="M3.70391 11.182C3.99609 11.5086 4.48594 11.5086 4.77812 11.1734C4.80391 11.1477 4.85547 11.0875 4.93281 11.0016C5.06172 10.8641 5.19922 10.7008 5.34531 10.5203C5.775 10.0133 6.20469 9.46328 6.60859 8.90469C7.0125 8.34609 7.36484 7.79609 7.64844 7.28047C8.18125 6.32656 8.47344 5.50156 8.47344 4.82266C8.48203 2.43359 6.58281 0.5 4.23672 0.5C1.89062 0.5 0 2.43359 0 4.82266C0 5.50156 0.292188 6.33516 0.825 7.28906C1.11719 7.80469 1.46953 8.35469 1.86484 8.91328C2.26875 9.47188 2.69844 10.0219 3.12813 10.5289C3.28281 10.7094 3.42031 10.8727 3.54063 11.0102C3.62656 11.0961 3.67812 11.1562 3.70391 11.182ZM4.08203 10.8297C4.05625 10.8039 4.00469 10.7437 3.92734 10.6578C3.80703 10.5203 3.66953 10.357 3.52344 10.1852C3.10234 9.68672 2.68125 9.14531 2.28594 8.60391C1.89062 8.05391 1.54687 7.52969 1.27187 7.03125C0.782031 6.14609 0.515625 5.38984 0.515625 4.82266C0.515625 2.72578 2.18281 1.02422 4.23672 1.02422C6.29063 1.02422 7.96641 2.72578 7.96641 4.82266C7.96641 5.38984 7.7 6.14609 7.21016 7.02266C6.93516 7.52109 6.59141 8.05391 6.19609 8.59531C5.80078 9.14531 5.37969 9.67812 4.95859 10.1766C4.8125 10.3484 4.675 10.5117 4.55469 10.6492C4.47734 10.7352 4.42578 10.7867 4.4 10.8211C4.30547 10.9242 4.17656 10.9328 4.08203 10.8297Z" fill="#4B4B4B"/>
<path d="M4.23672 6.71338C3.07657 6.71338 2.13126 5.76807 2.13126 4.60791C2.13126 3.44775 3.07657 2.50244 4.23672 2.50244C5.39688 2.50244 6.34219 3.44775 6.34219 4.60791C6.34219 5.76807 5.39688 6.71338 4.23672 6.71338ZM4.23672 3.01807C3.36016 3.01807 2.64688 3.73135 2.64688 4.60791C2.64688 5.48447 3.36016 6.19775 4.23672 6.19775C5.11329 6.19775 5.82657 5.48447 5.82657 4.60791C5.82657 3.73135 5.11329 3.01807 4.23672 3.01807Z" fill="#4B4B4B"/>
</svg>
