<svg width="111" height="111" viewBox="0 0 111 111" fill="none" xmlns="http://www.w3.org/2000/svg">
<circle cx="55.5" cy="55.5" r="54" stroke="white" stroke-width="3"/>
<path d="M86.5 55.5C86.5 70.7543 82.934 84.5399 77.1943 94.4947C71.4469 104.463 63.582 110.5 55 110.5C46.418 110.5 38.5531 104.463 32.8057 94.4947C27.066 84.5399 23.5 70.7543 23.5 55.5C23.5 40.2457 27.066 26.4601 32.8057 16.5053C38.5531 6.53721 46.418 0.5 55 0.5C63.582 0.5 71.4469 6.53721 77.1943 16.5053C82.934 26.4601 86.5 40.2457 86.5 55.5Z" stroke="white"/>
<path d="M109.5 49H1M6 77.5H105.5" stroke="white"/>
</svg>
