<svg aria-hidden="true" style="position: absolute; width: 0; height: 0; overflow: hidden;" version="1.1" xmlns="http://www.w3.org/2000/svg" xmlns:xlink="http://www.w3.org/1999/xlink">
<defs>

<symbol id="icon-arrow-left" viewBox="0 0 20 32">
<path fill="none" stroke="#fff" style="stroke: var(--color1, #fff)" stroke-linejoin="miter" stroke-linecap="butt" stroke-miterlimit="4" stroke-width="4.5714" d="M18.116 1.736l-13.954 13.954 13.954 13.954"></path>
</symbol>

<symbol id="icon-arrow-right" viewBox="0 0 20 32">
<path fill="none" stroke="#fff" style="stroke: var(--color1, #fff)" stroke-linejoin="miter" stroke-linecap="butt" stroke-miterlimit="4" stroke-width="4.5714" d="M1.693 1.736l13.954 13.954-13.954 13.954"></path>
</symbol>

<symbol id="icon-arrow-up" viewBox="0 0 31 32">
<path fill="#4cd7ab" style="fill: var(--color2, #4cd7ab)" d="M5.851 0.667c-0.534 0-1.047 0.212-1.424 0.59s-0.59 0.89-0.59 1.424c0 0.534 0.212 1.047 0.59 1.424s0.89 0.59 1.424 0.59h17.94l-23.15 23.15c-0.198 0.184-0.357 0.407-0.467 0.654s-0.169 0.514-0.174 0.785 0.045 0.539 0.146 0.79c0.101 0.251 0.252 0.479 0.443 0.67s0.419 0.342 0.67 0.443 0.519 0.151 0.79 0.146c0.27-0.005 0.537-0.064 0.784-0.174s0.469-0.269 0.654-0.467l23.15-23.15v17.94c0 0.534 0.212 1.047 0.59 1.424s0.89 0.59 1.424 0.59c0.534 0 1.047-0.212 1.424-0.59s0.59-0.89 0.59-1.424v-22.801c-0.001-0.268-0.056-0.533-0.161-0.779-0.146-0.343-0.384-0.64-0.687-0.858s-0.66-0.348-1.032-0.377h-22.935z"></path>
</symbol>

<symbol id="icon-dollar" viewBox="0 0 20 32">
<path fill="#4cd7ab" style="fill: var(--color2, #4cd7ab)" d="M19.486 23.999c-0.522 0.983-1.241 1.804-2.149 2.476-0.913 0.67-2.004 1.169-3.273 1.498-0.555 0.141-1.135 0.238-1.725 0.318v3.709h-4.41v-3.635c-1.256-0.106-2.457-0.303-3.587-0.615-1.726-0.475-3.986-2.391-3.986-2.391-0.194-0.113-0.322-0.313-0.349-0.533-0.028-0.223 0.048-0.447 0.206-0.606l2.209-2.219c0.238-0.236 0.608-0.281 0.894-0.105 0 0 1.654 1.442 2.907 1.785 1.253 0.342 2.497 0.514 3.737 0.514 1.564 0 2.857-0.277 3.883-0.832 1.027-0.559 1.539-1.422 1.539-2.602 0-0.85-0.251-1.52-0.758-2.012-0.505-0.488-1.359-0.796-2.565-0.931l-3.958-0.342c-2.344-0.23-4.151-0.886-5.421-1.961-1.274-1.079-1.906-2.716-1.906-4.903 0-1.211 0.243-2.289 0.733-3.237s1.156-1.749 2.003-2.401c0.846-0.654 1.833-1.145 2.956-1.471 0.47-0.137 0.962-0.227 1.462-0.309v-3.195h4.41v3.131c1.029 0.102 2.009 0.268 2.921 0.52 1.547 0.424 3.172 1.699 3.172 1.699 0.203 0.106 0.342 0.305 0.377 0.531 0.035 0.231-0.040 0.457-0.2 0.623l-2.072 2.111c-0.221 0.225-0.562 0.283-0.844 0.137 0 0-1.227-0.877-2.287-1.154s-2.173-0.418-3.345-0.418c-1.532 0-2.665 0.295-3.395 0.882-0.734 0.591-1.097 1.358-1.097 2.305 0 0.853 0.256 1.505 0.78 1.96 0.52 0.459 1.399 0.757 2.638 0.883l3.468 0.297c2.571 0.228 4.518 0.914 5.836 2.058 1.32 1.146 1.979 2.813 1.979 5.001 0 1.312-0.261 2.453-0.781 3.435z"></path>
</symbol>

<symbol id="icon-email" viewBox="0 0 40 32">
<path fill="#fff" style="fill: var(--color1, #fff)" d="M39.242 11.889c0.305-0.242 0.758-0.016 0.758 0.367v15.977c0 2.070-1.68 3.75-3.75 3.75h-32.5c-2.070 0-3.75-1.68-3.75-3.75v-15.969c0-0.391 0.445-0.609 0.758-0.367 1.75 1.359 4.070 3.086 12.039 8.875 1.648 1.203 4.43 3.734 7.203 3.719 2.789 0.023 5.625-2.563 7.211-3.719 7.969-5.789 10.281-7.523 12.031-8.883zM20 21.983c1.812 0.031 4.422-2.281 5.734-3.234 10.367-7.523 11.156-8.18 13.547-10.055 0.453-0.352 0.719-0.898 0.719-1.477v-1.484c0-2.070-1.68-3.75-3.75-3.75h-32.5c-2.070 0-3.75 1.68-3.75 3.75v1.484c0 0.578 0.266 1.117 0.719 1.477 2.391 1.867 3.18 2.531 13.547 10.055 1.313 0.953 3.922 3.266 5.734 3.234z"></path>
</symbol>

<symbol id="icon-facebook" viewBox="0 0 17 32">
<path  d="M17.297 0.006l-4.805-0.006c-4.66 0-7.67 3.089-7.67 7.876v3.629h-4.821v6.567h4.821l-0.006 13.927h6.746l0.006-13.927h5.532l-0.004-6.566h-5.528v-3.079c0-1.481 0.35-2.23 2.276-2.23l3.439-0.001 0.015-6.191z"></path>
</symbol>

<symbol id="icon-instagram" viewBox="0 0 32 32">
<path d="M22.715 0h-13.415c-5.827 0-9.301 3.472-9.301 9.296v13.392c0 5.84 3.474 9.312 9.301 9.312h13.399c5.827 0 9.301-3.472 9.301-9.296v-13.408c0.016-5.824-3.458-9.296-9.285-9.296zM16.008 22.208c-3.426 0-6.211-2.784-6.211-6.208s2.785-6.208 6.211-6.208c3.426 0 6.211 2.784 6.211 6.208s-2.785 6.208-6.211 6.208zM25.485 7.808c-0.080 0.192-0.192 0.368-0.336 0.528-0.16 0.144-0.336 0.256-0.528 0.336s-0.4 0.128-0.608 0.128c-0.432 0-0.832-0.16-1.137-0.464-0.144-0.16-0.256-0.336-0.336-0.528s-0.128-0.4-0.128-0.608 0.048-0.416 0.128-0.608c0.080-0.208 0.192-0.368 0.336-0.528 0.368-0.368 0.929-0.544 1.441-0.432 0.112 0.016 0.208 0.048 0.304 0.096 0.096 0.032 0.192 0.080 0.288 0.144 0.080 0.048 0.16 0.128 0.24 0.192 0.144 0.16 0.256 0.32 0.336 0.528 0.080 0.192 0.128 0.4 0.128 0.608s-0.048 0.416-0.128 0.608z"></path>
</symbol>

<symbol id="icon-map" viewBox="0 0 24 32">
<path fill="#4b4b4b" style="fill: var(--color4, #4b4b4b)" d="M9.877 29.819c0.779 0.871 2.085 0.871 2.865-0.023 0.069-0.069 0.206-0.229 0.412-0.458 0.344-0.367 0.71-0.802 1.1-1.283 1.146-1.352 2.292-2.819 3.369-4.308s2.017-2.956 2.773-4.331c1.421-2.544 2.2-4.744 2.2-6.554 0.023-6.371-5.042-11.527-11.298-11.527s-11.298 5.156-11.298 11.527c0 1.81 0.779 4.033 2.2 6.577 0.779 1.375 1.719 2.842 2.773 4.331 1.077 1.49 2.223 2.956 3.369 4.308 0.412 0.481 0.779 0.917 1.1 1.283 0.229 0.229 0.367 0.389 0.435 0.458zM10.885 28.879c-0.069-0.069-0.206-0.229-0.412-0.458-0.321-0.367-0.688-0.802-1.077-1.26-1.123-1.329-2.246-2.773-3.3-4.217-1.054-1.467-1.971-2.865-2.704-4.194-1.306-2.36-2.017-4.377-2.017-5.89 0-5.592 4.446-10.129 9.923-10.129s9.946 4.537 9.946 10.129c0 1.512-0.71 3.529-2.017 5.867-0.733 1.329-1.65 2.75-2.704 4.194-1.054 1.467-2.177 2.887-3.3 4.217-0.39 0.458-0.756 0.894-1.077 1.26-0.206 0.229-0.344 0.367-0.412 0.458-0.252 0.275-0.596 0.298-0.848 0.023z"></path>
<path fill="#4b4b4b" style="fill: var(--color4, #4b4b4b)" d="M11.298 17.902c-3.094 0-5.615-2.521-5.615-5.615s2.521-5.615 5.615-5.615c3.094 0 5.615 2.521 5.615 5.615s-2.521 5.615-5.615 5.615zM11.298 8.048c-2.338 0-4.24 1.902-4.24 4.24s1.902 4.24 4.24 4.24c2.338 0 4.24-1.902 4.24-4.24s-1.902-4.24-4.24-4.24z"></path>
</symbol>

<symbol id="icon-markets" viewBox="0 0 111 111" fill="none" xmlns="http://www.w3.org/2000/svg">
<circle cx="55.5" cy="55.5" r="54" stroke="white" stroke-width="3"/>
<path d="M86.5 55.5C86.5 70.7543 82.934 84.5399 77.1943 94.4947C71.4469 104.463 63.582 110.5 55 110.5C46.418 110.5 38.5531 104.463 32.8057 94.4947C27.066 84.5399 23.5 70.7543 23.5 55.5C23.5 40.2457 27.066 26.4601 32.8057 16.5053C38.5531 6.53721 46.418 0.5 55 0.5C63.582 0.5 71.4469 6.53721 77.1943 16.5053C82.934 26.4601 86.5 40.2457 86.5 55.5Z" stroke="white"/>
<path d="M109.5 49H1M6 77.5H105.5" stroke="white"/>
</symbol>


<symbol id="icon-starr" viewBox="0 0 34 32">
<path fill="#faba05" style="fill: var(--color5, #faba05)" d="M16.842 0l3.781 11.638h12.237l-9.9 7.192 3.781 11.638-9.9-7.192-9.9 7.192 3.781-11.638-9.9-7.192h12.236l3.781-11.638z"></path>
</symbol>

<symbol  id="icon-strategies"   viewBox="0 0 84 137" fill="none" xmlns="http://www.w3.org/2000/svg">
<path d="M18.1919 2H29.6829L32.8168 17.1255H37.5177V2H49.0087V17.1255H52.5719L57.8881 2H69.3792L62.589 31.4671H57.8881V44.2471H62.589V57.2863H54.2319L60.4997 101.098H66.7676V112.051H82.4371V135H2V112.051H19.2365V101.098H25.5044L32.8168 57.2863H24.982V44.2471H31.4671V31.7294H26.0267L18.1919 2Z" stroke="white" stroke-width="3"/>
<path d="M58.9431 45.006H30.6706M55.7575 56.5539H26.6886M25.0958 101.949H61.3323M67.3054 112.701H19.5209M30.6706 30.6707H60.5359" stroke="white"/>
</symbol>


<symbol id="icon-telegram" viewBox="0 0 37 32">
<path  d="M34.653 0.72l-32.918 12.613c-2.247 0.897-2.233 2.142-0.412 2.697l8.451 2.62 19.554-12.259c0.925-0.559 1.769-0.258 1.075 0.354l-15.842 14.209-0.583 8.656c0.854 0 1.231-0.389 1.71-0.849l4.105-3.966 8.539 6.267c1.575 0.862 2.705 0.419 3.097-1.448l5.605-26.248c0.574-2.286-0.878-3.321-2.38-2.645z"></path>
</symbol>

<symbol id="icon-telephone" viewBox="0 0 32 32">
<path fill="#fff" style="fill: var(--color1, #fff)" d="M22.476 27.785l2.092-3.935c0.227-0.428 0.114-0.959-0.263-1.259l-3.998-3.146c-0.35-0.275-0.844-0.287-1.204-0.024l-2.655 1.908c-2.704-2.281-4.598-5.507-5.232-9.061l2.98-1.345c0.408-0.185 0.644-0.614 0.581-1.055l-0.726-5.036c-0.074-0.482-0.478-0.846-0.962-0.863l-4.454-0.156c-0.463-0.016-0.881 0.287-1.003 0.743-2.768 10.328 3.354 20.955 13.699 23.727 0.452 0.121 0.926-0.085 1.145-0.497z"></path>
</symbol>

<symbol id="icon-tools" viewBox="0 0 37 32">
<path fill="none" stroke="#fff" style="stroke: var(--color1, #fff)" stroke-linejoin="miter" stroke-linecap="butt" stroke-miterlimit="4" stroke-width="0.6358" d="M22.787 13.194l-4.763 9.145-4.54 2.185-0.622-4.947 5.009-9.014M22.787 13.194v0c0.671-1.255 0.192-2.817-1.068-3.479l-0.363-0.191c-1.251-0.658-2.799-0.196-3.486 1.040v0M22.787 13.194l-4.916-2.63"></path>
<path fill="#fff" style="fill: var(--color1, #fff)" d="M17.104 11.92l-10.931-5.848-3.449 6.447 10.931 5.848 0.1-0.187-10.744-5.748 3.249-6.073 3.083 1.65-1.949 3.644 0.187 0.1 1.949-3.644 2.523 1.35-0.8 1.495 0.187 0.1 0.8-1.495 2.336 1.25-2.199 4.111 0.187 0.1 2.199-4.111 2.242 1.2 0.1-0.187zM18.613 20.779l11.305 6.048 3.249-6.073-2.803-1.5-1.1 2.055-0.187-0.1 1.1-2.055-2.803-1.5-1.949 3.644-0.187-0.1 1.949-3.644-3.457-1.849-2.199 4.111-0.187-0.1 2.199-4.111-1.682-0.9 0.1-0.187 11.492 6.148-3.449 6.447-11.492-6.148 0.1-0.187z"></path>
</symbol>

<symbol id="icon-twitter" viewBox="0 0 38 32">
<path  d="M11.927 31.407c-4.392 0-8.483-1.287-11.927-3.502 2.037 0.247 4.103 0.091 6.079-0.462s3.824-1.489 5.438-2.756c-1.624-0.030-3.198-0.567-4.501-1.537s-2.27-2.323-2.765-3.869c0.476 0.093 0.964 0.141 1.462 0.141 0.71 0 1.4-0.096 2.057-0.269-1.761-0.357-3.344-1.31-4.482-2.7s-1.76-3.13-1.762-4.926v-0.102c1.079 0.601 2.286 0.934 3.52 0.972-1.067-0.71-1.941-1.673-2.545-2.803s-0.919-2.392-0.917-3.673c0-1.42 0.388-2.761 1.055-3.909 1.954 2.403 4.391 4.368 7.154 5.768s5.789 2.203 8.883 2.358c-0.388-1.668-0.214-3.417 0.493-4.976s1.909-2.842 3.419-3.65c1.51-0.808 3.244-1.095 4.934-0.818s3.241 1.104 4.414 2.352c1.742-0.345 3.412-0.982 4.94-1.885-0.581 1.801-1.796 3.33-3.418 4.305 1.542-0.184 3.048-0.596 4.468-1.224-1.047 1.56-2.361 2.923-3.882 4.028 0.014 0.333 0.024 0.669 0.024 1.005-0.002 10.275-7.83 22.134-22.141 22.132z"></path>
</symbol>

</defs>
</svg>
