<svg width="28" height="28" viewBox="0 0 28 28" fill="none" xmlns="http://www.w3.org/2000/svg">
<g clip-path="url(#clip0_1378_3578)">
<path d="M19.6666 24.3115L21.4969 20.8684C21.6955 20.4942 21.597 20.029 21.2664 19.7665L17.7679 17.0136C17.4618 16.7727 17.0295 16.7628 16.7146 16.9923L14.3913 18.6618C12.025 16.6662 10.3684 13.8433 9.81365 10.7331L12.4211 9.55582C12.7783 9.39434 12.9849 9.01852 12.9294 8.63298L12.2946 4.22677C12.2299 3.80474 11.8763 3.48685 11.453 3.47175L7.556 3.3353C7.15124 3.3214 6.78522 3.58642 6.67837 3.98519C4.25679 13.0226 9.61339 22.3212 18.665 24.7466C19.0602 24.8525 19.4753 24.6725 19.6666 24.3115Z" fill="white"/>
</g>
<defs>
<clipPath id="clip0_1378_3578">
<rect width="22.4467" height="22.4467" fill="white" transform="translate(27.4915 5.80957) rotate(105)"/>
</clipPath>
</defs>
</svg>
