<svg width="174" height="151" viewBox="0 0 174 151" fill="none" xmlns="http://www.w3.org/2000/svg">
<path d="M107.528 62.2596L85.0546 105.414L63.6306 115.726L60.6958 92.382L84.3303 49.8487M107.528 62.2596V62.2596C110.696 56.3373 108.434 48.9678 102.489 45.8427L100.778 44.9434C94.8734 41.8396 87.5706 44.0175 84.3303 49.8487V49.8487M107.528 62.2596L84.3303 49.8487" stroke="white" stroke-width="3"/>
<path fill-rule="evenodd" clip-rule="evenodd" d="M80.7082 56.2476L69.6865 50.3509L57.783 43.9824L44.9978 37.1422L29.5674 28.8867L29.1265 28.6509L28.8907 29.0917L13.0874 58.63L12.8515 59.0708L13.2924 59.3067L64.4332 86.6676L64.9049 85.7859L14.205 58.6608L29.5365 30.0044L44.0852 37.7881L34.8863 54.9819L35.768 55.4537L44.9669 38.2598L56.8704 44.6283L53.0965 51.6822L53.9782 52.1539L57.7521 45.1L68.7739 50.9968L58.3956 70.395L59.2773 70.8667L69.6556 51.4685L80.2365 57.1294L80.7082 56.2476ZM87.8301 98.0511L141.175 126.591L156.507 97.9348L143.281 90.8587L138.092 100.558L137.21 100.086L142.399 90.387L129.173 83.3109L119.974 100.505L119.092 100.033L128.291 82.8392L111.979 74.112L101.601 93.5102L100.719 93.0385L111.097 73.6402L103.162 69.3946L103.633 68.5128L112.01 72.9944L129.204 82.1933L143.312 89.7411L157.419 97.2889L157.86 97.5248L157.624 97.9657L141.821 127.504L141.585 127.945L141.144 127.709L87.3584 98.9328L87.8301 98.0511Z" fill="white"/>
</svg>
