<svg width="32" height="27" viewBox="0 0 32 27" fill="none" xmlns="http://www.w3.org/2000/svg">
<path d="M10.0635 26.5C6.35753 26.5 2.90605 25.4138 0 23.5452C1.71873 23.754 3.46176 23.6216 5.12923 23.1557C6.79671 22.6899 8.35586 21.8997 9.71738 20.8304C8.34702 20.8053 7.0189 20.3519 5.9194 19.5338C4.8199 18.7157 4.00419 17.574 3.58675 16.2689C3.98818 16.3474 4.3998 16.3881 4.82014 16.3881C5.41939 16.3881 6.00118 16.3067 6.55534 16.1613C5.06978 15.8605 3.73387 15.0556 2.77381 13.883C1.81376 12.7104 1.28858 11.2421 1.28721 9.72682V9.64103C2.19737 10.148 3.21588 10.4292 4.25726 10.4611C3.35741 9.86176 2.61984 9.04914 2.11026 8.0957C1.60068 7.14226 1.33493 6.07761 1.33667 4.9966C1.33667 3.79841 1.66392 2.66711 2.22681 1.69867C3.87515 3.72624 5.9317 5.38448 8.26285 6.56567C10.594 7.74686 13.1476 8.42458 15.7578 8.55481C15.4308 7.14767 15.5769 5.67199 16.1735 4.35625C16.7701 3.04052 17.784 1.95813 19.0581 1.27668C20.3323 0.595238 21.7956 0.352746 23.2215 0.586756C24.6474 0.820766 25.9563 1.51822 26.9457 2.57114C28.4152 2.28034 29.8247 1.74244 31.1142 0.98034C30.6236 2.49988 29.599 3.79029 28.23 4.61271C29.5309 4.45743 30.8015 4.10948 32 3.58029C31.1162 4.89655 30.0075 6.04688 28.7245 6.97855C28.7361 7.25919 28.7449 7.54274 28.7449 7.8263C28.7434 16.4957 22.1386 26.5015 10.0635 26.5Z" fill="white"/>
</svg>
