<svg width="148" height="54" viewBox="0 0 148 54" fill="none" xmlns="http://www.w3.org/2000/svg">
<g clip-path="url(#clip0_1378_3543)">
<path d="M50.4237 14.7715H53.225L61.0286 33.5354H57.2268L55.326 28.6448H48.4227L46.5218 33.5354H42.72L50.4237 14.7715ZM54.0254 25.3511L51.9244 19.8617L49.8234 25.3511H54.0254Z" fill="white"/>
<path d="M63.0296 14.7715H68.232C76.8361 14.7715 78.3368 20.5604 78.3368 24.2533C78.3368 26.2494 77.8365 33.5354 68.3321 33.5354H63.0296V14.7715ZM68.232 30.2417C70.1329 30.2417 74.8351 30.0421 74.8351 24.353C74.8351 18.4644 69.9328 18.2648 68.0319 18.2648H66.5312V30.2417H68.232Z" fill="white"/>
<path d="M80.8379 14.7715H86.2405C92.5434 14.7715 93.3438 18.9634 93.3438 20.76C93.3438 23.7542 91.3429 26.3492 88.2414 26.6487L93.5439 33.5354H89.2419L84.3396 26.6487H84.2395V33.5354H80.7379V14.7715H80.8379ZM84.3396 23.7542H86.4406C87.241 23.7542 89.9422 23.6545 89.9422 20.9597C89.9422 18.2648 87.241 18.165 86.4406 18.165H84.3396V23.7542Z" fill="white"/>
<path d="M114.454 24.3531C114.454 29.7428 110.152 34.1344 104.549 34.1344C98.9465 34.1344 94.6444 29.8426 94.6444 24.3531C94.6444 18.9635 98.9465 14.572 104.549 14.572C110.152 14.572 114.454 18.8637 114.454 24.3531ZM110.952 24.2534C110.952 20.7601 108.251 17.8656 104.549 17.8656C100.847 17.8656 98.1461 20.7601 98.1461 24.2534C98.1461 27.8464 100.947 30.7409 104.549 30.7409C108.251 30.6411 110.952 27.7466 110.952 24.2534Z" fill="white"/>
<path d="M32.5153 0H27.813V40.1228H32.5153V0Z" fill="#1976D2"/>
<path d="M25.512 18.4646H20.8098V52.0999H25.512V18.4646Z" fill="#1E88E5"/>
<path d="M18.6087 15.9692H13.9065V40.1227H18.6087V15.9692Z" fill="#2196F3"/>
<path d="M11.6054 9.18237H6.90323V27.6469H11.6054V9.18237Z" fill="#42A5F5"/>
<path d="M4.70219 21.3589H0V33.9348H4.70219V21.3589Z" fill="#64B5F6"/>
<path d="M119.261 14.8096H128.865V18.203H122.762V22.4948H128.565V25.8882H122.762V33.5735H119.261V14.8096Z" fill="#F44336"/>
<path d="M136.369 24.1916L129.866 14.8096H133.968L138.47 21.2971L142.972 14.8096H147.074L140.571 24.1916L147.074 33.5735H142.872L138.37 27.086L133.868 33.5735H129.866L136.369 24.1916Z" fill="#F44336"/>
</g>
<path d="M46.7324 50H46.0786V41.3291H43.0635V40.7197H49.7476V41.3291H46.7324V50Z" fill="white"/>
<path d="M55.7842 50V45.5249C55.7842 44.8309 55.6382 44.3273 55.3462 44.0142C55.0542 43.6968 54.6014 43.5381 53.9878 43.5381C53.1626 43.5381 52.5575 43.7476 52.1724 44.1665C51.7915 44.5812 51.6011 45.2562 51.6011 46.1914V50H50.9727V40.123H51.6011V43.2651L51.5693 44.1475H51.6138C51.8719 43.7327 52.1978 43.4323 52.5913 43.2461C52.9849 43.0599 53.4736 42.9668 54.0576 42.9668C55.6234 42.9668 56.4062 43.8068 56.4062 45.4868V50H55.7842Z" fill="white"/>
<path d="M61.4272 50.127C60.4243 50.127 59.6414 49.818 59.0786 49.2002C58.52 48.5824 58.2407 47.717 58.2407 46.604C58.2407 45.5037 58.5116 44.6235 59.0532 43.9634C59.5949 43.299 60.3249 42.9668 61.2432 42.9668C62.0557 42.9668 62.6968 43.2503 63.1665 43.8174C63.6362 44.3844 63.8711 45.1546 63.8711 46.1279V46.6357H58.9009C58.9093 47.5837 59.1294 48.3073 59.561 48.8066C59.9969 49.306 60.619 49.5557 61.4272 49.5557C61.8208 49.5557 62.1657 49.5282 62.4619 49.4731C62.7624 49.4181 63.1411 49.2996 63.5981 49.1177V49.689C63.2088 49.8582 62.8491 49.9725 62.519 50.0317C62.189 50.0952 61.825 50.127 61.4272 50.127ZM61.2432 43.5254C60.5788 43.5254 60.0456 43.7454 59.6436 44.1855C59.2415 44.6214 59.0067 45.252 58.939 46.0771H63.2046C63.2046 45.2773 63.0311 44.6532 62.6841 44.2046C62.3371 43.7518 61.8568 43.5254 61.2432 43.5254Z" fill="white"/>
<path d="M73.7798 46.7246H70.0093L68.7144 50H67.9971L71.7295 40.6816H72.1421L75.7983 50H75.0684L73.7798 46.7246ZM70.2441 46.1406H73.564L72.3008 42.7954C72.195 42.533 72.068 42.1691 71.9199 41.7036C71.8057 42.1099 71.6808 42.478 71.5454 42.8081L70.2441 46.1406Z" fill="white"/>
<path d="M79.6768 42.9668C79.9688 42.9668 80.2819 42.9964 80.6162 43.0557L80.4956 43.6587C80.2078 43.5868 79.9095 43.5508 79.6006 43.5508C79.0124 43.5508 78.5299 43.8005 78.1533 44.2998C77.7767 44.7992 77.5884 45.4297 77.5884 46.1914V50H76.96V43.1001H77.4932L77.5566 44.3442H77.6011C77.8846 43.8364 78.1872 43.481 78.5088 43.2778C78.8304 43.0705 79.2197 42.9668 79.6768 42.9668Z" fill="white"/>
<path d="M83.8472 49.5684C84.245 49.5684 84.592 49.5345 84.8882 49.4668V49.9746C84.5835 50.0762 84.2323 50.127 83.8345 50.127C83.2251 50.127 82.7744 49.964 82.4824 49.6382C82.1947 49.3123 82.0508 48.8003 82.0508 48.1021V43.646H81.0288V43.2778L82.0508 42.9922L82.3682 41.4307H82.6919V43.1001H84.7168V43.646H82.6919V48.0132C82.6919 48.5422 82.785 48.9336 82.9712 49.1875C83.1574 49.4414 83.4494 49.5684 83.8472 49.5684Z" fill="white"/>
<path d="M95.4634 46.5405C95.4634 47.6662 95.1904 48.5464 94.6445 49.1812C94.0986 49.8117 93.3454 50.127 92.3848 50.127C91.7796 50.127 91.2464 49.981 90.7852 49.689C90.3239 49.397 89.9705 48.978 89.7251 48.4321C89.4797 47.8862 89.3569 47.2557 89.3569 46.5405C89.3569 45.4149 89.6299 44.5389 90.1758 43.9126C90.7217 43.2821 91.4707 42.9668 92.4229 42.9668C93.3708 42.9668 94.1134 43.2863 94.6509 43.9253C95.1925 44.5601 95.4634 45.4318 95.4634 46.5405ZM90.0171 46.5405C90.0171 47.4884 90.2244 48.229 90.6392 48.7622C91.0581 49.2912 91.6484 49.5557 92.4102 49.5557C93.1719 49.5557 93.7601 49.2912 94.1748 48.7622C94.5938 48.229 94.8032 47.4884 94.8032 46.5405C94.8032 45.5884 94.5916 44.8499 94.1685 44.3252C93.7495 43.8005 93.1592 43.5381 92.3975 43.5381C91.6357 43.5381 91.0475 43.8005 90.6328 44.3252C90.2223 44.8457 90.0171 45.5841 90.0171 46.5405Z" fill="white"/>
<path d="M99.9385 43.646H98.3135V50H97.6851V43.646H96.4028V43.2778L97.6851 43.043V42.5098C97.6851 41.6634 97.8395 41.0435 98.1484 40.6499C98.4616 40.2521 98.9715 40.0532 99.6782 40.0532C100.059 40.0532 100.44 40.1104 100.821 40.2246L100.675 40.7705C100.336 40.6647 99.9998 40.6118 99.6655 40.6118C99.1746 40.6118 98.8255 40.7578 98.6182 41.0498C98.415 41.3376 98.3135 41.8073 98.3135 42.459V43.1001H99.9385V43.646Z" fill="white"/>
<path d="M107.226 50H106.572V41.3291H103.557V40.7197H110.241V41.3291H107.226V50Z" fill="white"/>
<path d="M114.183 42.9668C114.475 42.9668 114.788 42.9964 115.122 43.0557L115.001 43.6587C114.714 43.5868 114.415 43.5508 114.106 43.5508C113.518 43.5508 113.036 43.8005 112.659 44.2998C112.283 44.7992 112.094 45.4297 112.094 46.1914V50H111.466V43.1001H111.999L112.062 44.3442H112.107C112.39 43.8364 112.693 43.481 113.015 43.2778C113.336 43.0705 113.726 42.9668 114.183 42.9668Z" fill="white"/>
<path d="M120.721 50L120.562 48.9082H120.511C120.164 49.3525 119.807 49.6678 119.438 49.854C119.075 50.036 118.643 50.127 118.144 50.127C117.466 50.127 116.94 49.9535 116.563 49.6064C116.186 49.2594 115.998 48.7791 115.998 48.1655C115.998 47.4927 116.277 46.9701 116.836 46.5977C117.399 46.2253 118.211 46.0285 119.273 46.0073L120.587 45.9692V45.5122C120.587 44.8563 120.454 44.3612 120.188 44.0269C119.921 43.6925 119.491 43.5254 118.899 43.5254C118.26 43.5254 117.598 43.7031 116.912 44.0586L116.677 43.5127C117.435 43.1572 118.184 42.9795 118.924 42.9795C119.682 42.9795 120.247 43.1763 120.619 43.5698C120.996 43.9634 121.184 44.577 121.184 45.4106V50H120.721ZM118.182 49.5557C118.918 49.5557 119.498 49.3462 119.921 48.9272C120.348 48.5041 120.562 47.918 120.562 47.1689V46.4897L119.356 46.5405C118.387 46.5871 117.695 46.7394 117.28 46.9976C116.87 47.2515 116.665 47.6493 116.665 48.1909C116.665 48.6226 116.796 48.959 117.058 49.2002C117.325 49.4372 117.699 49.5557 118.182 49.5557Z" fill="white"/>
<path d="M125.951 42.9668C126.451 42.9668 126.882 43.0578 127.246 43.2397C127.61 43.4217 127.936 43.7327 128.224 44.1729H128.262C128.236 43.6396 128.224 43.117 128.224 42.605V40.123H128.846V50H128.433L128.274 48.9463H128.224C127.699 49.7334 126.946 50.127 125.964 50.127C125.012 50.127 124.284 49.8307 123.78 49.2383C123.277 48.6458 123.025 47.7826 123.025 46.6484C123.025 45.4551 123.275 44.5431 123.774 43.9126C124.273 43.2821 124.999 42.9668 125.951 42.9668ZM125.951 43.5381C125.198 43.5381 124.631 43.8026 124.25 44.3315C123.873 44.8605 123.685 45.6286 123.685 46.6357C123.685 48.5908 124.445 49.5684 125.964 49.5684C126.743 49.5684 127.314 49.342 127.678 48.8892C128.042 48.4364 128.224 47.6895 128.224 46.6484V46.5405C128.224 45.4741 128.044 44.7082 127.684 44.2427C127.329 43.7729 126.751 43.5381 125.951 43.5381Z" fill="white"/>
<path d="M131.797 50H131.169V43.1001H131.797V50ZM131.08 41.1831C131.08 40.7769 131.213 40.5737 131.48 40.5737C131.611 40.5737 131.713 40.6266 131.785 40.7324C131.861 40.8382 131.899 40.9884 131.899 41.1831C131.899 41.3735 131.861 41.5238 131.785 41.6338C131.713 41.7438 131.611 41.7988 131.48 41.7988C131.213 41.7988 131.08 41.5936 131.08 41.1831Z" fill="white"/>
<path d="M138.926 50V45.5249C138.926 44.8309 138.78 44.3273 138.488 44.0142C138.196 43.6968 137.743 43.5381 137.129 43.5381C136.304 43.5381 135.699 43.7476 135.314 44.1665C134.933 44.5812 134.743 45.2562 134.743 46.1914V50H134.114V43.1001H134.647L134.768 44.0459H134.806C135.255 43.3265 136.052 42.9668 137.199 42.9668C138.765 42.9668 139.548 43.8068 139.548 45.4868V50H138.926Z" fill="white"/>
<path d="M147.165 43.1001V43.5381L145.737 43.627C146.118 44.1009 146.308 44.6214 146.308 45.1885C146.308 45.8529 146.086 46.3924 145.642 46.8071C145.201 47.2176 144.609 47.4229 143.864 47.4229C143.551 47.4229 143.331 47.4102 143.204 47.3848C142.954 47.516 142.764 47.6704 142.633 47.8481C142.502 48.0259 142.436 48.2142 142.436 48.4131C142.436 48.6331 142.519 48.7939 142.684 48.8955C142.853 48.9971 143.134 49.0479 143.528 49.0479H144.734C145.483 49.0479 146.056 49.2002 146.454 49.5049C146.852 49.8053 147.051 50.2518 147.051 50.8442C147.051 51.5721 146.755 52.1328 146.162 52.5264C145.574 52.9242 144.734 53.123 143.642 53.123C142.775 53.123 142.102 52.9559 141.624 52.6216C141.15 52.2873 140.913 51.8218 140.913 51.2251C140.913 50.7511 141.059 50.3576 141.351 50.0444C141.647 49.7313 142.047 49.5176 142.55 49.4033C142.343 49.3145 142.176 49.1896 142.049 49.0288C141.926 48.8638 141.865 48.6755 141.865 48.4639C141.865 48.0026 142.159 47.5964 142.747 47.2451C142.345 47.0801 142.032 46.8219 141.808 46.4707C141.583 46.1152 141.471 45.709 141.471 45.252C141.471 44.5622 141.689 44.0099 142.125 43.5952C142.565 43.1763 143.158 42.9668 143.902 42.9668C144.355 42.9668 144.706 43.0112 144.956 43.1001H147.165ZM141.579 51.168C141.579 52.1159 142.284 52.5898 143.693 52.5898C145.504 52.5898 146.41 52.0122 146.41 50.8569C146.41 50.4422 146.268 50.1418 145.984 49.9556C145.701 49.7694 145.242 49.6763 144.607 49.6763H143.477C142.212 49.6763 141.579 50.1735 141.579 51.168ZM142.106 45.252C142.106 45.7852 142.267 46.1999 142.588 46.4961C142.914 46.7881 143.348 46.9341 143.89 46.9341C144.465 46.9341 144.905 46.7881 145.21 46.4961C145.519 46.2041 145.673 45.7809 145.673 45.2266C145.673 44.6383 145.515 44.1982 145.197 43.9062C144.884 43.61 144.444 43.4619 143.877 43.4619C143.327 43.4619 142.893 43.6206 142.576 43.938C142.263 44.2511 142.106 44.6891 142.106 45.252Z" fill="white"/>
<defs>
<clipPath id="clip0_1378_3543">
<rect width="147" height="52" fill="white"/>
</clipPath>
</defs>
</svg>
